<svg width="18" height="15" viewBox="0 0 18 15" fill="none" xmlns="http://www.w3.org/2000/svg">
<path d="M3.25 0.3125C2.4875 0.3125 1.75623 0.615401 1.21707 1.15457C0.677901 1.69373 0.375 2.425 0.375 3.1875V3.47644L9 8.121L17.625 3.47788V3.1875C17.625 2.425 17.3221 1.69373 16.7829 1.15457C16.2438 0.615401 15.5125 0.3125 14.75 0.3125H3.25Z" fill="white"/>
<path d="M17.625 5.10938L9.34069 9.56994C9.23598 9.6263 9.11892 9.65581 9 9.65581C8.88108 9.65581 8.76402 9.6263 8.65931 9.56994L0.375 5.10938V11.8124C0.375 12.5749 0.677901 13.3062 1.21707 13.8454C1.75623 14.3845 2.4875 14.6874 3.25 14.6874H14.75C15.5125 14.6874 16.2438 14.3845 16.7829 13.8454C17.3221 13.3062 17.625 12.5749 17.625 11.8124V5.10938Z" fill="white"/>
</svg>
